<svg width="48" height="48" viewBox="0 0 48 48" fill="none" xmlns="http://www.w3.org/2000/svg">
<rect width="48" height="48" fill="#323238"/>
<g clip-path="url(#clip0_61494:8)">
<path d="M17.0522 20.0999H11.8327C11.601 20.0999 11.4133 20.2823 11.4133 20.5073V36.8008C11.4133 37.0259 11.601 37.2082 11.8327 37.2082H17.0522C17.2839 37.2082 17.4716 37.0259 17.4716 36.8008V20.5073C17.4716 20.2823 17.2839 20.0999 17.0522 20.0999Z" fill="white"/>
<path d="M14.4442 12C12.5451 12 11 13.4997 11 15.3431C11 17.1873 12.5451 18.6875 14.4442 18.6875C16.3419 18.6875 17.8857 17.1872 17.8857 15.3431C17.8858 13.4997 16.3419 12 14.4442 12Z" fill="white"/>
<path d="M30.3284 19.6949C28.232 19.6949 26.6823 20.5706 25.7424 21.5656V20.5073C25.7424 20.2823 25.5547 20.0998 25.323 20.0998H20.3244C20.0927 20.0998 19.905 20.2823 19.905 20.5073V36.8008C19.905 37.0258 20.0927 37.2082 20.3244 37.2082H25.5325C25.7642 37.2082 25.9519 37.0258 25.9519 36.8008V28.7393C25.9519 26.0228 26.7112 24.9644 28.6601 24.9644C30.7825 24.9644 30.9512 26.661 30.9512 28.8791V36.8008C30.9512 37.0259 31.1389 37.2083 31.3705 37.2083H36.5806C36.8123 37.2083 37 37.0259 37 36.8008V27.8636C37 23.8242 36.2073 19.6949 30.3284 19.6949Z" fill="white"/>
</g>
<defs>
<clipPath id="clip0_61494:8">
<rect width="26" height="22" fill="white" transform="translate(11 12)"/>
</clipPath>
</defs>
</svg>
